<svg height="512pt" viewBox="-45 0 512 512.00032" width="512pt" xmlns="http://www.w3.org/2000/svg"><path d="m121.546875 194.972656c3.855469 8.179688 13.609375 11.679688 21.785156 7.824219 8.179688-3.851563 11.683594-13.609375 7.828125-21.785156l-15.792968-33.496094c-7.027344-14.914063-1.835938-32.828125 12.078124-41.667969l5.40625-3.433594c32.917969-20.914062 40.378907-65.84375 16.015626-96.273437-5.648438-7.058594-15.953126-8.199219-23.007813-2.550781-7.058594 5.652344-8.199219 15.953125-2.550781 23.011718 5.902344 7.375 8.300781 16.5625 6.75 25.878907-2.632813 15.828125-13.753906 21.65625-20.167969 25.730469-27.808594 17.667968-38.183594 53.464843-24.136719 83.265624zm0 0"/><path d="m184.355469 168.496094c-5.976563 6.785156-5.320313 17.128906 1.464843 23.105468 6.789063 5.972657 17.132813 5.316407 23.105469-1.46875l11.855469-13.460937c13.867188-15.75 15.921875-38.417969 5.113281-56.402344l-1.359375-2.265625c-3.195312-5.3125-2.867187-11.960937.832032-16.933594l19.730468-26.519531c5.398438-7.25 3.890625-17.507812-3.359375-22.902343-7.253906-5.398438-17.511719-3.890626-22.90625 3.359374l-19.730469 26.519532c-11.65625 15.664062-12.691406 36.601562-2.632812 53.335937l1.363281 2.269531c3.429688 5.707032 2.777344 12.902344-1.625 17.902344zm0 0"/><path d="m339.964844 479.261719c-11.234375 0-81.972656 0-93.222656 0 29.214843-22.078125 48.128906-57.09375 48.128906-96.4375 0-1.660157 0-116.671875 0-115.726563 0-9.042968-7.328125-16.371094-16.371094-16.371094h-208.882812c-9.042969 0-16.371094 7.328126-16.371094 16.371094v115.726563c0 39.390625 18.9375 74.378906 48.136718 96.4375h-85.011718c-9.039063 0-16.371094 7.332031-16.371094 16.367187 0 9.039063 7.332031 16.371094 16.371094 16.371094h323.59375c9.046875 0 16.371094-7.332031 16.371094-16.371094 0-9.035156-7.324219-16.367187-16.371094-16.367187zm0 0"/><path d="m350.082031 289.152344h-22.46875v32.742187h22.46875c21.730469 0 39.410157 17.679688 39.410157 39.40625 0 18.195313-12.34375 33.929688-30.023438 38.261719l-33.898438 8.316406c-2.09375 12.707032-5.761718 24.894532-10.78125 36.355469l52.484376-12.867187c32.355468-7.933594 54.960937-36.746094 54.960937-70.066407-.003906-39.789062-32.359375-72.148437-72.152344-72.148437zm0 0"/></svg>